<?xml version="1.0" encoding="UTF-8"?>
<svg version="1.1" xmlns="http://www.w3.org/2000/svg" width="512" height="512">
<path d="M0 0 C1.12019531 0.14453613 2.24039063 0.28907227 3.39453125 0.43798828 C50.57473776 6.81579165 50.57473776 6.81579165 65 22 C70.42932832 29.78238724 69.58165685 38.45934379 69.53125 47.5625 C69.53394848 49.28068257 69.53783386 50.99886364 69.54284668 52.71704102 C69.54872502 56.30792869 69.54023286 59.8984168 69.52148438 63.48925781 C69.49869558 68.0757071 69.51182765 72.6612199 69.53577423 77.24763489 C69.5502775 80.79259201 69.54560557 84.33732971 69.53526306 87.8822937 C69.53260826 89.5726635 69.53582133 91.26305369 69.54518127 92.95339966 C69.62499245 111.41516004 69.62499245 111.41516004 62.1875 119.0625 C46.86031143 130.91938172 25.61407464 134.31669455 7 137.25 C6.04246826 137.40106201 5.08493652 137.55212402 4.09838867 137.70776367 C-15.86691231 140.61428134 -35.79630806 141.35307029 -55.94873047 141.31567383 C-58.63542527 141.31106488 -61.32166479 141.31790409 -64.00830078 141.33618164 C-159.46797939 141.93696051 -159.46797939 141.93696051 -185.25 117.3125 C-189.61622377 112.59742845 -190.29836325 108.55010856 -190.29052734 102.22143555 C-190.29724457 101.44205627 -190.30396179 100.662677 -190.31088257 99.85968018 C-190.32986666 97.28529467 -190.33378714 94.71116989 -190.3359375 92.13671875 C-190.34236584 90.343164 -190.34909423 88.54961029 -190.35610962 86.75605774 C-190.3680839 82.99595713 -190.37179036 79.23594841 -190.37060547 75.47583008 C-190.37040243 70.66728822 -190.39768804 65.85933838 -190.43214989 61.0509367 C-190.45443465 57.34564023 -190.45844251 53.64048578 -190.45738602 49.93512917 C-190.45974023 48.16297175 -190.46855367 46.39081032 -190.48405075 44.6187191 C-190.50374027 42.13431267 -190.49786148 39.65117679 -190.48583984 37.16674805 C-190.49707886 36.44078934 -190.50831787 35.71483063 -190.51989746 34.96687317 C-190.44295593 28.68066708 -188.38809777 24.46848918 -184.02734375 19.9609375 C-166.28861931 6.49940082 -142.59189342 2.78595058 -121 0 C-119.83597656 -0.15098145 -118.67195313 -0.30196289 -117.47265625 -0.45751953 C-78.80680746 -5.19868909 -38.62788024 -5.01028845 0 0 Z M-172 32 C-172.33 32.99 -172.66 33.98 -173 35 C-121.10550607 65.88087843 -29.51615071 58.81652093 27.00854492 44.9309082 C39.78489114 41.64473048 39.78489114 41.64473048 51 35 C49.14380338 30.42718229 46.60448485 29.30866557 42.26171875 27.2890625 C28.12054178 21.70033388 12.98839622 19.1310516 -2 17 C-3.04494629 16.84756836 -4.08989258 16.69513672 -5.16650391 16.53808594 C-48.11956019 10.57935483 -135.75473429 2.11693519 -172 32 Z M-173 54 C-173.17755156 61.17125415 -173.30009977 68.3419415 -173.38452148 75.51489258 C-173.41971447 77.95456116 -173.4674767 80.39408221 -173.52807617 82.83325195 C-173.61303959 86.34102755 -173.65270137 89.84685169 -173.68359375 93.35546875 C-173.71972275 94.44522507 -173.75585175 95.53498138 -173.79307556 96.65776062 C-173.93379339 102.10949854 -173.93379339 102.10949854 -171.53279114 106.77284241 C-167.41855424 109.80952392 -162.6563424 111.53101879 -157.8125 113.0625 C-157.03350342 113.31362549 -156.25450684 113.56475098 -155.4519043 113.82348633 C-100.75364298 130.83261409 -33.35481635 128.89308737 22 117 C22.71317383 116.84950195 23.42634766 116.69900391 24.16113281 116.54394531 C32.81233456 114.66252698 45.45063535 111.54936465 52 105 C52.09333705 103.40389018 52.11745372 101.80366572 52.11352539 100.20483398 C52.11344986 99.18385117 52.11337433 98.16286835 52.11329651 97.11094666 C52.10813522 96.0005452 52.10297394 94.89014374 52.09765625 93.74609375 C52.0962413 92.61551041 52.09482635 91.48492706 52.09336853 90.32008362 C52.08775019 86.69252935 52.07519458 83.06503576 52.0625 79.4375 C52.05748736 76.98502693 52.05292405 74.5325529 52.04882812 72.08007812 C52.0377748 66.05336455 52.02101884 60.02668661 52 54 C51.40573715 54.19956802 50.8114743 54.39913605 50.19920349 54.60475159 C-18.16422503 77.49192381 -104.63433855 77.28124869 -173 54 Z " fill="#000000" transform="translate(315,355)"/>
<path d="M0 0 C3.21414755 0.72796432 4.10559198 1.74751106 6.03515625 4.4609375 C6.62383305 8.15262453 6.47411035 11.81435377 6.37890625 15.54296875 C6.36363892 16.71156937 6.34837158 17.88016998 6.3326416 19.08418274 C6.26454149 23.2110728 6.15677269 27.33534767 6.03515625 31.4609375 C6.01251709 32.24242912 5.98987793 33.02392075 5.96655273 33.82909393 C5.59891042 46.33115261 5.13163471 58.82908098 4.64447021 71.32696533 C4.45974763 76.09478817 4.28094185 80.86283305 4.1015625 85.63085938 C3.75171772 94.90777192 3.39557586 104.18443018 3.03515625 113.4609375 C4.27686081 113.45427567 5.51856537 113.44761383 6.79789734 113.44075012 C18.49564761 113.37995416 30.19336585 113.33497207 41.89123821 113.30550098 C47.90534229 113.28984031 53.9193189 113.26859441 59.93334961 113.23461914 C65.73643562 113.20204046 71.53939896 113.18408751 77.34256935 113.17630577 C79.55737044 113.17075962 81.77216476 113.15992945 83.98691368 113.14374733 C87.08737104 113.12199323 90.18732049 113.11896978 93.2878418 113.12036133 C94.20493927 113.1095755 95.12203674 113.09878967 96.06692505 113.087677 C100.86485061 113.11100233 104.1650953 113.28349747 108.03515625 116.4609375 C109.58660761 119.56384023 109.74391908 122.1273496 109.03515625 125.4609375 C105.68050755 132.24598503 100.80498399 138.1446003 96.14648438 144.06762695 C92.43566125 148.82814986 89.03691576 153.77212875 85.66015625 158.7734375 C81.10807329 165.50841018 76.40062715 172.0750356 71.48266602 178.54663086 C67.39791935 183.93549109 63.48488071 189.43135455 59.60302734 194.9675293 C54.37183349 202.4240591 49.03350498 209.80137428 43.68945312 217.17724609 C40.90597423 221.01972862 38.12641026 224.8650372 35.34765625 228.7109375 C34.80375244 229.46366943 34.25984863 230.21640137 33.69946289 230.99194336 C30.06214583 236.02937158 26.44392719 241.08000804 22.83862305 246.14038086 C19.46766345 250.86729492 16.06492999 255.57084413 12.66015625 260.2734375 C7.9150092 266.82996387 3.22603183 273.42328796 -1.42944336 280.04370117 C-6.72993045 287.5698846 -12.12650054 295.02619558 -17.53417969 302.47558594 C-18.94730278 304.43659567 -20.33684684 306.4129917 -21.7265625 308.390625 C-24.89655107 312.73898628 -24.89655107 312.73898628 -27.96484375 313.4609375 C-32.06874457 313.38765356 -34.18228193 313.20834904 -37.19029236 310.33544922 C-39.4532217 306.6698372 -39.2695104 304.79332262 -38.85766602 300.53125 C-38.7965265 299.84056427 -38.73538698 299.14987854 -38.67239475 298.43826294 C-38.459314 296.10970158 -38.21291944 293.78601448 -37.96484375 291.4609375 C-37.79929785 289.77452633 -37.63493467 288.08799872 -37.47164917 286.40136719 C-36.90932344 280.70904718 -36.29531918 275.02269648 -35.6796875 269.3359375 C-35.45660837 267.2513348 -35.2338407 265.16669874 -35.0113678 263.08203125 C-34.43085668 257.65017755 -33.84617405 252.21878108 -33.26055908 246.78747559 C-32.66137231 241.22317545 -32.06621804 235.6584441 -31.47070312 230.09375 C-30.30598303 219.21572512 -29.1368463 208.33818 -27.96484375 197.4609375 C-29.0562114 197.45729187 -30.14757904 197.45364624 -31.27201843 197.44989014 C-41.5572244 197.41294864 -51.84213074 197.35518515 -62.12710857 197.27703476 C-67.41474842 197.23752586 -72.70222089 197.20535407 -77.98999023 197.18994141 C-83.09302873 197.17479738 -88.19560713 197.14039176 -93.29844093 197.09262848 C-95.24523736 197.07779144 -97.19209947 197.06989516 -99.13895226 197.06905365 C-101.86616439 197.06668923 -104.59209963 197.03965236 -107.3190918 197.00683594 C-108.52642471 197.01438148 -108.52642471 197.01438148 -109.75814819 197.02207947 C-114.78011388 196.9285857 -117.45480339 196.09029853 -120.96484375 192.4609375 C-122.37680044 189.63702413 -122.20716632 187.59802601 -121.96484375 184.4609375 C-120.73413086 181.77392578 -120.73413086 181.77392578 -118.9921875 179.03125 C-118.02539062 177.48630859 -118.02539062 177.48630859 -117.0390625 175.91015625 C-116.33394531 174.81316406 -115.62882813 173.71617187 -114.90234375 172.5859375 C-114.16927838 171.42399279 -113.43752717 170.26121805 -112.70703125 169.09765625 C-111.20335804 166.70680969 -109.69256051 164.32071854 -108.17529297 161.93847656 C-105.52090826 157.76872035 -102.90353101 153.57613287 -100.28735352 149.38232422 C-99.06434801 147.4219111 -97.83955194 145.46261399 -96.61303711 143.50439453 C-92.02566618 136.17971831 -87.4871085 128.82595616 -82.96484375 121.4609375 C-77.15275163 111.99593315 -71.29396572 102.56167174 -65.3984375 93.1484375 C-61.40110729 86.76451562 -57.42398535 80.36860738 -53.46484375 73.9609375 C-48.88546467 66.54944473 -44.27672477 59.15692827 -39.65234375 51.7734375 C-33.55159691 42.03148631 -27.51179147 32.25342349 -21.5065918 22.45239258 C-19.66554593 19.45136624 -17.81624274 16.45558528 -15.96484375 13.4609375 C-15.33191406 12.42662598 -14.69898438 11.39231445 -14.046875 10.32666016 C-13.12455078 8.84045166 -13.12455078 8.84045166 -12.18359375 7.32421875 C-11.63638672 6.43645752 -11.08917969 5.54869629 -10.52539062 4.6340332 C-7.56734169 0.51488527 -4.86286056 0.20613282 0 0 Z M-12.96484375 41.4609375 C-14.02905439 43.04894234 -15.04177525 44.67143986 -16.03515625 46.3046875 C-16.67646484 47.35398437 -17.31777344 48.40328125 -17.97851562 49.484375 C-18.32197021 50.04995117 -18.6654248 50.61552734 -19.01928711 51.19824219 C-20.84024325 54.19648695 -22.67293309 57.18755351 -24.50390625 60.1796875 C-25.06606842 61.09947388 -25.06606842 61.09947388 -25.6395874 62.0378418 C-29.20757465 67.87093962 -32.83069259 73.66885714 -36.46484375 79.4609375 C-41.67216938 87.76959416 -46.8340591 96.10480467 -51.96484375 104.4609375 C-57.69930751 113.80023825 -63.48258571 123.10720459 -69.30273438 132.39331055 C-74.7258365 141.05552791 -80.08464873 149.75660874 -85.42382812 158.47070312 C-89.11478526 164.4871545 -92.8623682 170.45956228 -96.69726562 176.38549805 C-98.05171486 178.19785497 -98.05171486 178.19785497 -97.96484375 179.4609375 C-96.91914719 179.47124496 -95.87345062 179.48155243 -94.79606628 179.49217224 C-84.95184133 179.58983614 -75.10768057 179.69256359 -65.2635603 179.80027676 C-60.20234044 179.85549249 -55.14111479 179.9089104 -50.07983398 179.95825195 C-45.19742563 180.00591532 -40.31508803 180.05825895 -35.43276405 180.11387825 C-33.56802439 180.13429284 -31.70326532 180.15300741 -29.83849144 180.17001152 C-27.23104197 180.19407528 -24.6237263 180.22412725 -22.01635742 180.25561523 C-21.24168121 180.2613707 -20.467005 180.26712616 -19.66885376 180.27305603 C-16.50968557 180.31655576 -13.98381054 180.45461524 -10.96484375 181.4609375 C-10.13155657 186.90615337 -9.96901633 191.61353991 -10.58569336 197.12695312 C-10.6635759 197.84678879 -10.74145844 198.56662445 -10.82170105 199.30827332 C-11.0783856 201.66226653 -11.34785477 204.01461107 -11.6171875 206.3671875 C-11.79890851 208.01800501 -11.97968391 209.66892686 -12.15956116 211.31994629 C-12.63342843 215.65122565 -13.11756319 219.98128863 -13.60467529 224.31109619 C-14.38297502 231.2395117 -15.14812643 238.16936871 -15.90844917 245.09977722 C-16.17459732 247.50861759 -16.44668559 249.91673211 -16.71946716 252.3248291 C-16.88470261 253.81483882 -17.04975619 255.30486873 -17.21459961 256.79492188 C-17.35973495 258.08539429 -17.5048703 259.3758667 -17.65440369 260.70544434 C-17.98111894 264.65782375 -18.01762535 268.49769736 -17.96484375 272.4609375 C-9.72985351 262.28373258 -2.04940819 251.67326544 5.46508789 240.95776367 C9.09450286 235.78371671 12.76771701 230.64366576 16.47265625 225.5234375 C17.01196777 224.77795654 17.5512793 224.03247559 18.10693359 223.2644043 C20.29702962 220.23891418 22.48888211 217.21469855 24.68066406 214.19042969 C30.50978486 206.14464977 36.31842741 198.08708778 42.03515625 189.9609375 C47.74885676 181.83909189 53.55463097 173.78600182 59.38085938 165.74462891 C63.75936697 159.70027235 68.12977717 153.65006351 72.49511719 147.59619141 C73.52119223 146.17354519 74.54788439 144.75134387 75.57519531 143.32958984 C77.00174898 141.35425445 78.42516805 139.3767017 79.84765625 137.3984375 C80.27457764 136.80836914 80.70149902 136.21830078 81.14135742 135.61035156 C83.16146899 133.25598235 83.16146899 133.25598235 84.03515625 130.4609375 C82.86417892 130.45507126 81.6932016 130.44920502 80.48674011 130.44316101 C69.46514585 130.38601153 58.44375038 130.31329086 47.42235851 130.22522259 C41.7557892 130.18044615 36.089293 130.14120612 30.42260742 130.11450195 C24.95655274 130.0885415 19.49077833 130.0481908 14.02489662 129.99775124 C11.93688753 129.9810333 9.84882991 129.96954981 7.76076317 129.96332359 C4.84175428 129.953736 1.92347045 129.92574112 -0.99536133 129.89331055 C-2.29763672 129.89546318 -2.29763672 129.89546318 -3.6262207 129.8976593 C-9.55214096 129.80420651 -9.55214096 129.80420651 -11.64792919 128.06101704 C-14.53724609 124.55043481 -14.01987593 121.26192869 -13.87890625 116.9375 C-13.85798416 116.17248672 -13.83706207 115.40747345 -13.81550598 114.61927795 C-13.74539903 112.1079892 -13.66767365 109.59699778 -13.58984375 107.0859375 C-13.54006297 105.3526314 -13.49066762 103.61931419 -13.44165039 101.88598633 C-13.11394021 90.50407657 -12.70758089 79.12583584 -12.2722168 67.74755859 C-11.94980736 58.98143635 -11.85207561 50.23179303 -11.96484375 41.4609375 C-12.29484375 41.4609375 -12.62484375 41.4609375 -12.96484375 41.4609375 Z " fill="#000000" transform="translate(277.96484375,15.5390625)"/>
</svg>
