<?xml version="1.0" encoding="UTF-8"?>
<svg version="1.1" xmlns="http://www.w3.org/2000/svg" width="512" height="512">
<path d="M0 0 C6.78577085 5.07405785 12.92895171 10.63992833 18.89575195 16.64178467 C20.14989332 17.89124606 20.14989332 17.89124606 21.42937088 19.16594911 C23.72105318 21.4510908 26.00827247 23.74058719 28.29356503 26.0321157 C30.76973797 28.51284822 33.25170176 30.9877762 35.7328949 33.46348572 C40.57987396 38.30160864 45.42147612 43.14507733 50.26112026 47.99053636 C54.1935903 51.9275347 58.12802212 55.86256258 62.06384277 59.79621124 C62.62530876 60.35737076 63.18677475 60.91853028 63.76525486 61.49669464 C64.90601459 62.6368149 66.04677881 63.77693069 67.18754745 64.91704205 C77.8619619 75.58576511 88.53025759 86.2605897 99.19644332 96.93753865 C108.34867919 106.09872364 117.50616652 115.25463183 126.66748047 124.40673828 C137.31715454 135.04571395 147.96358311 145.6879201 158.60483646 156.3353188 C159.73878124 157.46990066 160.87273018 158.60447835 162.00668335 159.73905182 C162.84350797 160.57633927 162.84350797 160.57633927 163.69723815 161.43054162 C167.62945474 165.36448535 171.56398782 169.29610304 175.49942017 173.22682953 C180.29038043 178.0121864 185.07777249 182.80107867 189.86059684 187.59456769 C192.3008808 190.04011339 194.7427468 192.48402233 197.18896294 194.92363548 C199.83732075 197.56655575 202.47948472 200.2155143 205.12011719 202.8661499 C205.89733281 203.63890408 206.67454844 204.41165826 207.47531605 205.20782924 C208.18026046 205.91798914 208.88520487 206.62814905 209.61151123 207.35982895 C210.22199688 207.9706393 210.83248253 208.58144966 211.46146774 209.21076941 C215.45136366 213.8508046 215.42796836 218.15375055 215.3125 224.0859375 C214.74397844 229.38740101 212.22134216 231.83972495 208.5 235.375 C203.44221514 237.72325726 198.48314207 237.97097307 193 237 C188.40164337 234.27091992 184.80567406 231.06069787 181.125 227.25 C180.62742187 226.74339844 180.12984375 226.23679688 179.6171875 225.71484375 C178.40676798 224.48114693 177.20270147 223.24122216 176 222 C175.99780016 223.61594669 175.99780016 223.61594669 175.99555588 225.26453876 C175.9589342 251.49744271 175.89944951 277.73021926 175.81609726 303.96301746 C175.7763158 316.64909383 175.74391871 329.33510825 175.72900391 342.02124023 C175.71598283 353.08058889 175.68900632 364.13980117 175.64538693 375.19907302 C175.62278262 381.05296544 175.60708872 386.90668972 175.60811615 392.76062965 C175.60886335 398.27561264 175.59088785 403.7902241 175.55883217 409.30511093 C175.55034499 411.32423266 175.54857516 413.34339611 175.55419731 415.36252785 C175.59474129 432.16774707 173.03991316 444.27821633 161.5 457.125 C153.91774978 464.4574474 143.42493348 469.11691582 132.9162817 469.13422108 C131.03347733 469.14090784 131.03347733 469.14090784 129.11263651 469.14772969 C127.71709437 469.1476404 126.32155224 469.14745055 124.92601013 469.14717102 C123.44546842 469.15047058 121.9649276 469.15419634 120.48438793 469.1583125 C116.41009415 469.16833031 112.33581509 469.17204895 108.26151073 469.17470181 C103.86936688 469.17860554 99.47723468 469.18818386 95.08509827 469.19691467 C84.47483152 469.21667765 73.86456383 469.22674531 63.25428328 469.23564246 C58.25728566 469.24002583 53.2602891 469.24539254 48.26329231 469.25063133 C31.65116184 469.26764382 15.03903203 469.28213772 -1.57310581 469.28938007 C-5.88410506 469.29128996 -10.19510429 469.29321029 -14.50610352 469.29516602 C-15.57757741 469.29564976 -16.64905131 469.2961335 -17.75299411 469.2966319 C-35.10796515 469.30493118 -52.46286723 469.33026632 -69.81780816 469.36274669 C-87.63715484 469.39582421 -105.45646649 469.41382948 -123.27584404 469.41702431 C-133.28017224 469.41918882 -143.28439992 469.42792875 -153.2886982 469.45348549 C-161.80938643 469.47520197 -170.32994971 469.48323825 -178.85066248 469.47351871 C-183.19634753 469.4689767 -187.54177483 469.4708544 -191.88742447 469.49028015 C-195.87071425 469.50793191 -199.85355862 469.50689801 -203.83685326 469.49138286 C-205.27299532 469.48900982 -206.70916839 469.49331456 -208.14526314 469.50521151 C-223.09028937 469.62128753 -234.02176536 465.47373093 -245.125 455.5 C-253.32626838 447.01932969 -257.1442082 436.10138897 -257.15821838 424.50860596 C-257.16315636 423.64355871 -257.16809434 422.77851146 -257.17318195 421.88725066 C-257.18856065 418.98375499 -257.19691861 416.08028144 -257.20532227 413.17675781 C-257.21490049 411.09737452 -257.22491054 409.01799318 -257.23532104 406.93861389 C-257.26238214 401.28821697 -257.28338521 395.63781169 -257.30332303 389.98738575 C-257.32517512 384.08432805 -257.35256762 378.18129616 -257.37937927 372.27825928 C-257.42931665 361.09758573 -257.47425162 349.91689786 -257.51740164 338.73619628 C-257.56676507 326.00839633 -257.62168652 313.28062229 -257.67708123 300.55284739 C-257.79091733 274.36858908 -257.89775284 248.18430594 -258 222 C-258.89203125 222.91523438 -259.7840625 223.83046875 -260.703125 224.7734375 C-261.88514805 225.97422282 -263.06745461 227.17472909 -264.25 228.375 C-264.83652344 228.97828125 -265.42304688 229.5815625 -266.02734375 230.203125 C-266.60097656 230.78320312 -267.17460937 231.36328125 -267.765625 231.9609375 C-268.28930664 232.49509277 -268.81298828 233.02924805 -269.35253906 233.57958984 C-273.90077925 237.50099788 -278.28575679 237.42539889 -284.0859375 237.3125 C-289.38740101 236.74397844 -291.83972495 234.22134216 -295.375 230.5 C-297.72325726 225.44221514 -297.97097307 220.48314207 -297 215 C-293.79208429 209.39998671 -289.41632715 205.12795567 -284.86856079 200.59440613 C-284.04197633 199.76258499 -283.21539187 198.93076385 -282.3637594 198.07373601 C-280.07751278 195.77511091 -277.78685747 193.48098979 -275.49419427 191.18876779 C-273.01871668 188.71163724 -270.54896427 186.22880912 -268.07839966 183.7467804 C-262.6783471 178.32391229 -257.27087254 172.90848585 -251.86193132 167.49448562 C-248.48025054 164.10954273 -245.1002044 160.72297086 -241.72050095 157.33605385 C-232.35095542 147.94694411 -222.97983258 138.55941693 -213.60195351 129.17862988 C-213.00222317 128.57871196 -212.40249282 127.97879405 -211.78458884 127.36069681 C-210.56892355 126.14466529 -209.35325699 124.92863503 -208.13758917 123.71260604 C-207.23247814 122.80722078 -207.23247814 122.80722078 -206.30908203 121.88354492 C-205.40285544 120.97704751 -205.40285544 120.97704751 -204.47832124 120.05223701 C-194.70106432 110.27144255 -184.93559231 100.47897358 -175.17529388 90.68125888 C-165.13874403 80.6065445 -155.09278033 70.54129862 -145.03728044 60.4854973 C-139.39809385 54.84572784 -133.76287199 49.20212522 -128.13792801 43.5481472 C-123.34555527 38.73115102 -118.5445106 33.9230063 -113.73232909 29.1257958 C-111.28173187 26.68232379 -108.83518499 24.23515514 -106.39962769 21.77668381 C-77.71914536 -7.12621985 -38.22130068 -25.0564584 0 0 Z M-65.22729492 29.40620422 C-68.45739813 31.84841818 -71.70976663 34.25758367 -74.97601432 36.65123808 C-100.35278434 55.28395559 -124.53032285 75.20751842 -148 96.1875 C-148.91586868 97.00340921 -149.83173736 97.81931843 -150.77535963 98.65995216 C-197.75866848 140.65026376 -231.36128534 181.6048258 -235.12072229 246.30068231 C-236.31463252 268.48179065 -236.00416737 290.56237745 -234.91142178 312.7398873 C-234.81226156 314.75484523 -234.71598584 316.76992618 -234.62007904 318.78504133 C-233.08240601 350.73807361 -230.40793176 382.55431813 -226.28352356 414.27972412 C-226.18359614 415.06795864 -226.08366871 415.85619315 -225.98071319 416.66831356 C-224.93365941 426.02439875 -224.93365941 426.02439875 -219.6875 433.375 C-219.11386719 433.85710937 -218.54023438 434.33921875 -217.94921875 434.8359375 C-213.19025055 437.67796661 -207.53333479 437.13693548 -202.1706543 437.11352539 C-200.85282707 437.11374443 -200.85282707 437.11374443 -199.50837708 437.1139679 C-196.61363224 437.11327299 -193.7189523 437.10550036 -190.82421875 437.09765625 C-188.81354304 437.09579057 -186.80286688 437.09436737 -184.79219055 437.09336853 C-179.50681294 437.08955517 -174.22146292 437.07973495 -168.93609619 437.06866455 C-163.54008355 437.05842505 -158.14406644 437.05386547 -152.74804688 437.04882812 C-142.16535248 437.03811163 -131.58267854 437.02104937 -121 437 C-120.99853344 436.31015392 -120.99706688 435.62030785 -120.99555588 434.90955734 C-120.95841515 418.0812888 -120.89930471 401.25325288 -120.81609726 384.42515182 C-120.77638104 376.28701216 -120.74395105 368.14896816 -120.72900391 360.01074219 C-120.71594874 352.91289937 -120.68888626 345.8152677 -120.64538693 338.71754384 C-120.62285839 334.96343596 -120.6070841 331.20958765 -120.60811615 327.45540619 C-120.60886791 323.91266026 -120.59071342 320.37048623 -120.55883217 316.82788849 C-120.54641991 314.92655912 -120.55335682 313.02513325 -120.56114197 311.1237793 C-120.39871823 297.57189015 -116.09227416 285.86969652 -106.96875 275.74609375 C-97.69551059 266.89283801 -85.8851809 261.69295138 -73.05200195 261.70947266 C-72.28996964 261.70275543 -71.52793732 261.69603821 -70.74281311 261.68911743 C-68.2412348 261.67023142 -65.73992628 261.66621761 -63.23828125 261.6640625 C-61.48341262 261.65762657 -59.72854503 261.65089763 -57.97367859 261.64389038 C-54.2995658 261.63194 -50.62554686 261.6282071 -46.95141602 261.62939453 C-42.27236095 261.62959725 -37.59391645 261.60233393 -32.91500568 261.56785011 C-29.290149 261.54547008 -25.66543647 261.54156042 -22.04051781 261.54261398 C-20.31714977 261.54027321 -18.59377681 261.53153685 -16.87047768 261.51594925 C-1.05444385 261.38631449 12.09202436 264.07080185 24.25390625 275.03125 C35.1425764 286.43646048 38.29244052 299.04084076 38.31884766 314.27905273 C38.32815709 315.61997576 38.33832726 316.96089305 38.34928894 318.30180359 C38.37648876 321.92522832 38.39170845 325.5486144 38.40471697 329.17211413 C38.42039157 332.96513452 38.4471679 336.75807646 38.4727478 340.55104065 C38.51945916 347.7260529 38.55624015 354.90108002 38.58942068 362.07616621 C38.6276962 370.24792659 38.67709207 378.41960805 38.72740483 386.5913018 C38.83061096 403.39414444 38.91990801 420.19703095 39 437 C50.61363054 437.04638447 62.22723896 437.08190031 73.84094334 437.10362434 C79.23392069 437.11405191 84.62683457 437.12819244 90.01977539 437.15087891 C95.22634949 437.17264378 100.4328626 437.18457636 105.63947868 437.18975449 C107.62374773 437.19344369 109.60801353 437.20064776 111.59225655 437.21146011 C114.37611168 437.22602338 117.15971629 437.22797591 119.94360352 437.22705078 C120.76000305 437.23424133 121.57640259 437.24143188 122.4175415 437.24884033 C127.92549863 437.22909427 133.47443603 436.99730856 137.9609375 433.44921875 C138.42757813 432.86785156 138.89421875 432.28648437 139.375 431.6875 C139.85710937 431.11386719 140.33921875 430.54023438 140.8359375 429.94921875 C156.80260709 403.2130841 151.33511549 347.68645995 152.83824575 317.07977271 C152.90430851 315.73709369 152.97123816 314.39445703 153.03904307 313.05186486 C156.44936808 245.47093123 153.2386387 187.61587296 105.74127364 134.6157124 C92.88892103 120.5018608 79.08127642 107.48263322 64.875 94.75 C63.94469388 93.91239214 63.01438777 93.07478429 62.05589056 92.21179438 C42.38648244 74.52575954 22.18704685 57.53551298 1.09326172 41.56933594 C0.36762492 41.01687482 -0.35801188 40.4644137 -1.10563767 39.89521134 C-20.02008582 25.5721247 -43.31263915 12.73346205 -65.22729492 29.40620422 Z M-85.80859375 300.79296875 C-89.63608529 307.88323997 -89.27601832 315.6470038 -89.22705078 323.47460938 C-89.22734283 324.70472748 -89.22763489 325.93484558 -89.22793579 327.20223999 C-89.22678649 330.55299737 -89.21680066 333.90350408 -89.20278788 337.25421715 C-89.19023066 340.76423774 -89.1891061 344.27426217 -89.18673706 347.78430176 C-89.18053689 354.42101946 -89.16414602 361.05767076 -89.14403808 367.6943593 C-89.11943287 375.99674759 -89.10852974 384.29914681 -89.09765625 392.6015625 C-89.07821346 407.4010933 -89.03814309 422.20047936 -89 437 C-57.32 437 -25.64 437 7 437 C7.09016676 413.76242635 7.09016676 413.76242635 7.1507616 390.52482796 C7.1673663 382.21230027 7.18842572 373.89986319 7.22631836 365.58740234 C7.25631181 359.00461332 7.27559651 352.42189276 7.28226548 345.8390373 C7.28616099 342.35660087 7.29525334 338.87436024 7.31719017 335.39198685 C7.34153637 331.49517523 7.34196364 327.59855149 7.34057617 323.70166016 C7.351362 322.55941986 7.36214783 321.41717957 7.3732605 320.24032593 C7.34556219 313.02740113 7.22286929 304.84661298 2.37242413 299.05742836 C-5.03493905 291.9468108 -14.26515636 292.69240017 -23.9296875 292.69921875 C-25.2881788 292.69532429 -26.64666891 292.6909881 -28.00515747 292.68623352 C-30.84446164 292.67879924 -33.6836414 292.67904195 -36.52294922 292.68432617 C-40.13953689 292.69011385 -43.75561126 292.67319372 -47.37211418 292.6499815 C-50.17590247 292.6351611 -52.97956952 292.63438371 -55.78339005 292.63749123 C-57.75794994 292.63673661 -59.73249119 292.6229316 -61.70700073 292.60881042 C-71.3432715 292.6580893 -79.27961105 293.14792063 -85.80859375 300.79296875 Z " fill="#000000" transform="translate(297,27)"/>
</svg>
