<?xml version="1.0" encoding="UTF-8"?>
<svg version="1.1" xmlns="http://www.w3.org/2000/svg" width="512" height="512">
<path d="M0 0 C6.46287797 5.01971104 11.02966377 11.96053321 15.421875 18.76953125 C15.97672577 19.61780991 16.53157654 20.46608856 17.10324097 21.34007263 C18.29729272 23.16641343 19.48871653 24.99447462 20.67773438 26.82409668 C23.89140565 31.7678983 27.12582113 36.698095 30.359375 41.62890625 C31.35786469 43.15268387 31.35786469 43.15268387 32.37652588 44.70724487 C39.29252586 55.24526066 46.34521694 65.68917096 53.4140625 76.125 C62.24724797 89.17527132 71.02367382 102.25862548 79.6640625 115.4375 C80.11330078 116.12211304 80.56253906 116.80672607 81.02539062 117.51208496 C90.35292244 131.73709226 90.35292244 131.73709226 89.4140625 138.875 C88.18117179 142.16483791 86.65880668 145.04180762 83.66699219 147.04443359 C80.75442181 148.11818353 78.21940539 148.20126388 75.1171875 148.2890625 C73.91191406 148.32773438 72.70664062 148.36640625 71.46484375 148.40625 C69.58345703 148.45265625 69.58345703 148.45265625 67.6640625 148.5 C65.75947266 148.55800781 65.75947266 148.55800781 63.81640625 148.6171875 C60.6824368 148.71144222 57.54847301 148.79705166 54.4140625 148.875 C55.10371094 149.68582031 55.79335938 150.49664062 56.50390625 151.33203125 C61.01621644 156.64595528 65.51330919 161.96790382 69.9140625 167.375 C73.66258896 171.9803325 77.48490496 176.51704444 81.33032227 181.04125977 C84.2095157 184.43454109 87.04610487 187.85767786 89.8515625 191.3125 C93.30681317 195.55893508 96.84130328 199.72772673 100.4140625 203.875 C105.51163601 209.79850947 110.54471736 215.76093473 115.4140625 221.875 C115.95160156 222.54273438 116.48914063 223.21046875 117.04296875 223.8984375 C119.80446176 227.50175316 121.31670734 230.29930759 121.4140625 234.875 C120.38531646 239.91585558 118.29996726 242.55776423 114.4140625 245.875 C111.1119397 246.9757076 108.47322971 247.08127072 104.99609375 247.19140625 C103.11567383 247.25424805 103.11567383 247.25424805 101.19726562 247.31835938 C99.88693359 247.35767578 98.57660156 247.39699219 97.2265625 247.4375 C95.89126272 247.48070992 94.55597598 247.524325 93.22070312 247.56835938 C89.95192953 247.67456502 86.68307917 247.77660997 83.4140625 247.875 C83.754375 248.45540039 84.0946875 249.03580078 84.4453125 249.63378906 C94.94125018 267.54806568 105.2650031 285.55795041 115.53564453 303.60205078 C117.63947012 307.29804518 119.74497811 310.99307739 121.8515625 314.6875 C122.18767548 315.27727631 122.52378845 315.86705261 122.87008667 316.47470093 C127.43672698 324.48317345 132.08105959 332.43214706 136.91015625 340.28515625 C139.46790707 344.68980247 140.11673681 348.85182825 139.4140625 353.875 C137.39903361 357.62712276 135.95940108 359.51144095 132.4140625 361.875 C130.28015614 362.12109566 130.28015614 362.12109566 127.76338196 362.11550903 C126.33099686 362.11963303 126.33099686 362.11963303 124.86967468 362.12384033 C123.82382706 362.11664978 122.77797943 362.10945923 121.70043945 362.10205078 C120.5978479 362.10234283 119.49525635 362.10263489 118.35925293 362.10293579 C114.70687042 362.10154003 111.05469072 362.08596702 107.40234375 362.0703125 C104.87314465 362.06658325 102.3439441 362.06373586 99.81474304 362.06173706 C93.83304528 362.05487533 87.85143487 362.03910489 81.86977214 362.01903808 C75.05968524 361.99668777 68.24959486 361.98568784 61.43948042 361.97564721 C47.43096732 361.95473887 33.42251891 361.91955747 19.4140625 361.875 C19.42516556 362.5462793 19.43626862 363.21755859 19.44770813 363.90917969 C19.55861791 370.91734466 19.63386141 377.92525894 19.6887207 384.93408203 C19.71381202 387.54714084 19.74789279 390.16012982 19.79125977 392.77294922 C19.85214396 396.53630841 19.88032767 400.2987369 19.90234375 404.0625 C19.92815018 405.22426758 19.9539566 406.38603516 19.98054504 407.58300781 C19.98294891 414.58820485 19.19270975 419.54433907 14.4140625 424.875 C9.39205734 428.58051714 4.20099096 428.32745938 -1.8046875 428.30859375 C-2.78078979 428.3138356 -3.75689209 428.31907745 -4.76257324 428.32447815 C-6.82005871 428.33088286 -8.87758087 428.32958151 -10.93505859 428.32104492 C-14.07586007 428.31252733 -17.21484634 428.34133087 -20.35546875 428.37304688 C-22.35937446 428.37465892 -24.36328337 428.37408129 -26.3671875 428.37109375 C-27.30171753 428.38232773 -28.23624756 428.39356171 -29.19909668 428.40513611 C-34.81379747 428.34535814 -38.24026517 427.77578535 -42.5859375 423.875 C-47.75598458 418.20830116 -47.10418379 412.41974413 -46.9765625 405.0390625 C-46.97090271 403.80457367 -46.96524292 402.57008484 -46.95941162 401.29818726 C-46.93706625 397.36505958 -46.88686997 393.43285119 -46.8359375 389.5 C-46.81361409 386.8294404 -46.79762004 384.15888945 -46.78125 381.48828125 C-46.73720722 374.95020851 -46.67031181 368.41266994 -46.5859375 361.875 C-47.17400775 361.87868717 -47.762078 361.88237434 -48.36796856 361.88617325 C-62.68168012 361.97453779 -76.99536733 362.04071612 -91.30929089 362.08224869 C-98.2314401 362.1028678 -105.15340716 362.13097563 -112.07543945 362.17675781 C-118.75385866 362.22090766 -125.43204941 362.24412868 -132.1106205 362.25450897 C-134.66036269 362.26190772 -137.21009436 362.27635544 -139.75975609 362.29792023 C-143.32728966 362.32689783 -146.89403786 362.3309582 -150.46166992 362.32910156 C-151.51902847 362.34348267 -152.57638702 362.35786377 -153.66578674 362.37268066 C-160.84425353 362.33217591 -160.84425353 362.33217591 -164.69917297 359.95599365 C-168.07455531 356.23313946 -169.16407945 353.3502685 -169.03125 348.18652344 C-168.48444113 345.34815369 -167.3919451 343.33894397 -165.9609375 340.828125 C-165.41501953 339.85931396 -164.86910156 338.89050293 -164.30664062 337.89233398 C-163.45489258 336.39875366 -163.45489258 336.39875366 -162.5859375 334.875 C-161.53223677 332.97615704 -160.48015364 331.07641554 -159.4296875 329.17578125 C-153.06610773 317.76178656 -146.60862039 306.41101327 -139.99609375 295.1394043 C-134.61915653 285.96508035 -129.34455974 276.73397336 -124.09033203 267.48901367 C-120.33868727 260.89894717 -116.523824 254.35564655 -112.5859375 247.875 C-113.85655029 247.86098145 -113.85655029 247.86098145 -115.15283203 247.84667969 C-118.31788102 247.80247388 -121.48198562 247.74077473 -124.64648438 247.66748047 C-126.01191914 247.63938377 -127.37751314 247.61811323 -128.74316406 247.60400391 C-130.71447788 247.58242018 -132.68543381 247.5336454 -134.65625 247.484375 C-135.83977051 247.46342773 -137.02329102 247.44248047 -138.24267578 247.42089844 C-143.15701503 246.61846945 -146.34845239 244.40123163 -149.4609375 240.5625 C-150.94353427 237.02074105 -151.04668733 234.69264143 -150.5859375 230.875 C-147.88026901 225.48930917 -144.53197135 221.21950336 -140.5234375 216.75 C-139.36003615 215.43025223 -138.19728683 214.10992941 -137.03515625 212.7890625 C-136.45556152 212.13325195 -135.8759668 211.47744141 -135.27880859 210.80175781 C-132.7632187 207.93861454 -130.29460867 205.03704627 -127.8359375 202.125 C-127.38460449 201.59108643 -126.93327148 201.05717285 -126.46826172 200.50708008 C-123.66167801 197.17713961 -120.89587553 193.8163062 -118.1484375 190.4375 C-114.69319293 186.19107242 -111.15887174 182.02211576 -107.5859375 177.875 C-102.48631698 171.95379179 -97.50856912 165.94448128 -92.5859375 159.875 C-90.90036003 157.81092067 -89.21180159 155.74930288 -87.5234375 153.6875 C-86.21088824 152.08337364 -84.89837972 150.47921394 -83.5859375 148.875 C-84.37242676 148.87089111 -85.15891602 148.86678223 -85.96923828 148.86254883 C-89.55055628 148.8295498 -93.13018763 148.75889532 -96.7109375 148.6875 C-97.9484375 148.68169922 -99.1859375 148.67589844 -100.4609375 148.66992188 C-110.73859424 148.42126889 -110.73859424 148.42126889 -114.390625 145.44921875 C-117.60730558 141.67734597 -118.33012041 139.02490221 -118.20776367 134.11425781 C-117.42976616 130.06146198 -115.60734872 127.13243185 -113.375 123.7421875 C-112.93134598 123.05122986 -112.48769196 122.36027222 -112.03059387 121.64837646 C-106.8421055 113.61910022 -101.46867958 105.70974426 -96.09429932 97.80429077 C-85.63448163 82.41328595 -75.2919801 66.94911235 -65.07345581 51.39691162 C-60.41149987 44.30226883 -55.74045097 37.21359823 -51.06884766 30.12530518 C-50.12415588 28.6917424 -49.17978518 27.25796796 -48.23583984 25.82391357 C-45.74325069 22.03861494 -43.234093 18.26503649 -40.7109375 14.5 C-40.16518066 13.66944092 -39.61942383 12.83888184 -39.05712891 11.9831543 C-29.70746679 -1.84387402 -15.84754987 -8.06377096 0 0 Z M-20.5859375 15.875 C-28.04404115 24.26369933 -33.795343 34.68019738 -39.92779541 44.05453491 C-52.05347737 62.58470543 -64.34724856 80.99557805 -76.77807617 99.32226562 C-82.2237381 107.35702882 -87.63413846 115.41092561 -92.921875 123.55078125 C-93.39517242 124.27710251 -93.86846985 125.00342377 -94.35610962 125.75175476 C-96.5774899 128.60707344 -96.5774899 128.60707344 -97.5859375 131.875 C-96.26169014 131.88379936 -96.26169014 131.88379936 -94.91069031 131.89277649 C-86.59682348 131.9506447 -78.283227 132.02268737 -69.96962261 132.11071491 C-65.6953437 132.15547088 -61.42116125 132.19471524 -57.14672852 132.22143555 C-53.02278328 132.24741673 -48.89920824 132.28778169 -44.77549171 132.33818626 C-43.20105399 132.35489023 -41.62655219 132.3663825 -40.05203819 132.37261391 C-37.84899322 132.38221706 -35.64690288 132.41022844 -33.4440918 132.44262695 C-32.18944626 132.45373001 -30.93480072 132.46483307 -29.64213562 132.47627258 C-26.5859375 132.875 -26.5859375 132.875 -24.6822052 134.28092957 C-23.31438884 136.26985583 -23.18365419 137.4740684 -23.2109375 139.875 C-23.19933594 140.8959375 -23.19933594 140.8959375 -23.1875 141.9375 C-23.7293979 144.57261135 -24.39469274 145.29452124 -26.5859375 146.875 C-29.79711914 147.1328125 -29.79711914 147.1328125 -33.74609375 147 C-35.19463565 146.98326905 -36.64320804 146.96902876 -38.09179688 146.95703125 C-40.36247528 146.92431043 -42.6281666 146.87583188 -44.8972168 146.78271484 C-54.33942435 146.34724293 -54.33942435 146.34724293 -62.72070312 150.20385742 C-65.2565783 152.98009881 -67.43400481 155.79527237 -69.5859375 158.875 C-71.03276769 160.65524414 -72.48955966 162.42749033 -73.9609375 164.1875 C-74.69054687 165.09113281 -75.42015625 165.99476563 -76.171875 166.92578125 C-78.92455623 170.2886847 -81.74775519 173.58429569 -84.5859375 176.875 C-88.14065295 180.99951706 -91.65386536 185.14708505 -95.0859375 189.375 C-99.01611174 194.21651899 -103.06259823 198.94762391 -107.13354492 203.67041016 C-111.01438008 208.18243184 -114.79452723 212.76852691 -118.5390625 217.39453125 C-121.06113847 220.45086377 -123.69350313 223.39595027 -126.37109375 226.31640625 C-127.79085796 227.80855065 -127.79085796 227.80855065 -127.5859375 229.875 C-126.3368586 229.88713028 -126.3368586 229.88713028 -125.06254578 229.89950562 C-117.21964158 229.97740673 -109.3769101 230.06468374 -101.53422832 230.16252708 C-97.50210201 230.21249921 -93.47000202 230.25882906 -89.43774414 230.296875 C-85.54728156 230.33371641 -81.65703866 230.38007301 -77.76676369 230.43306351 C-76.28163311 230.4516136 -74.79645543 230.46671931 -73.3112545 230.47834396 C-71.23290833 230.49519622 -69.15506593 230.52422765 -67.0769043 230.55615234 C-65.89331833 230.56947601 -64.70973236 230.58279968 -63.49028015 230.5965271 C-60.5859375 230.875 -60.5859375 230.875 -57.5859375 232.875 C-56.05402261 240.78989362 -56.05402261 240.78989362 -57.5859375 244.875 C-61.27024524 246.08671772 -64.56241868 245.82024782 -68.40625 245.59375 C-82.0152327 244.58264565 -82.0152327 244.58264565 -94.76025391 248.13525391 C-98.21930544 251.75298764 -99.7227707 256.38891082 -101.41650391 261.01953125 C-103.49237881 266.08830638 -106.38290849 270.70619826 -109.16708374 275.41207886 C-110.93215615 278.41417263 -112.64724951 281.44455683 -114.3671875 284.47265625 C-115.07143898 285.70859617 -115.77586638 286.94443587 -116.48046875 288.18017578 C-117.52691063 290.01646841 -118.57328709 291.8527983 -119.61962891 293.68914795 C-121.98211022 297.83516759 -124.34592667 301.98042277 -126.7109375 306.125 C-127.36400879 307.26984863 -128.01708008 308.41469727 -128.68994141 309.59423828 C-133.87056154 318.6600019 -139.1210637 327.68299334 -144.42236328 336.67871094 C-144.97134277 337.61360352 -145.52032227 338.54849609 -146.0859375 339.51171875 C-146.81296875 340.74474731 -146.81296875 340.74474731 -147.5546875 342.00268555 C-148.6663457 343.66473219 -148.6663457 343.66473219 -148.5859375 344.875 C-122.85680944 345.04775383 -97.12764189 345.21401875 -71.3984375 345.375 C-69.97412548 345.38392281 -69.97412548 345.38392281 -68.52103949 345.39302588 C-19.23008062 345.70144949 30.05944247 345.97743286 79.3515625 345.9375 C80.94873926 345.93621597 80.94873926 345.93621597 82.57818222 345.93490601 C94.85683037 345.92423943 107.13544725 345.90548209 119.4140625 345.875 C118.02978888 342.34435789 116.50426424 339.07144021 114.6484375 335.76171875 C114.09559082 334.77389404 113.54274414 333.78606934 112.97314453 332.76831055 C112.37614746 331.71039307 111.77915039 330.65247559 111.1640625 329.5625 C110.53999512 328.45237549 109.91592773 327.34225098 109.27294922 326.19848633 C104.53165692 317.79141205 99.69355081 309.44305639 94.81201172 301.11669922 C89.56427643 292.15953394 84.39264473 283.15981356 79.27001953 274.13061523 C76.14461715 268.62574391 72.99309603 263.14222688 69.734375 257.71484375 C69.17121582 256.76569092 68.60805664 255.81653809 68.02783203 254.83862305 C66.98833806 253.09066911 65.93557856 251.35050225 64.86669922 249.62036133 C61.80275468 244.4303815 60.57645834 240.92145503 61.4140625 234.875 C62.44848633 233.18139648 62.44848633 233.18139648 64.4140625 231.875 C67.13430346 231.54401087 69.63865545 231.38649174 72.36328125 231.36328125 C73.13589798 231.34533005 73.90851471 231.32737885 74.70454407 231.30888367 C77.1701615 231.25473896 79.63558493 231.22087269 82.1015625 231.1875 C83.77411556 231.15433048 85.44664301 231.11984115 87.11914062 231.08398438 C91.217308 230.99901051 95.31541744 230.9322198 99.4140625 230.875 C95.66166825 225.76020307 91.77269253 220.84064084 87.6015625 216.0625 C83.2136378 210.99105991 78.91918891 205.85870901 74.69140625 200.65234375 C72.13202196 197.53103633 69.52812459 194.4504997 66.9140625 191.375 C63.54122661 187.40596457 60.20229605 183.41482979 56.9140625 179.375 C53.66184356 175.38206216 50.36831801 171.42861515 47.0390625 167.5 C46.35553711 166.69272461 46.35553711 166.69272461 45.65820312 165.86914062 C43.23982887 163.01661223 40.81223861 160.17236554 38.375 157.3359375 C37.87919434 156.75634277 37.38338867 156.17674805 36.87255859 155.57958984 C35.92804737 154.47571014 34.98063505 153.37430339 34.02978516 152.27587891 C27.65061198 144.80682077 27.65061198 144.80682077 27.0390625 139.8125 C27.48099198 136.35071907 27.84908304 135.23636032 30.4140625 132.875 C33.39858107 132.44948297 36.0299295 132.27012794 39.01953125 132.265625 C39.85873611 132.24908875 40.69794098 132.23255249 41.56257629 132.21551514 C44.24231208 132.16693977 46.92148007 132.14564372 49.6015625 132.125 C51.41864851 132.09684819 53.23570795 132.06692187 55.05273438 132.03515625 C59.50646368 131.9611786 63.95987601 131.91166257 68.4140625 131.875 C65.12177033 125.72448898 61.54098451 119.89125995 57.6015625 114.13671875 C56.76449768 112.90300285 56.76449768 112.90300285 55.91052246 111.6443634 C54.70818439 109.87241902 53.50432205 108.10150813 52.29907227 106.33154297 C49.04687635 101.55412993 45.80771498 96.76791493 42.5703125 91.98046875 C41.56502502 90.49394302 41.56502502 90.49394302 40.53942871 88.97738647 C32.04605466 76.39652224 23.71800534 63.70670018 15.3984375 51.01049805 C9.74634541 42.39209659 4.05479704 33.80306566 -1.7421875 25.28125 C-2.28508423 24.47909058 -2.82798096 23.67693115 -3.3873291 22.85046387 C-4.14789612 21.73822449 -4.14789612 21.73822449 -4.92382812 20.60351562 C-5.36682251 19.95370728 -5.80981689 19.30389893 -6.26623535 18.63439941 C-8.27476549 15.95666887 -9.78643846 14.16955228 -12.9609375 13 C-16.43069684 12.83477336 -17.76082539 13.90031118 -20.5859375 15.875 Z M-30.5859375 361.875 C-30.5859375 378.375 -30.5859375 394.875 -30.5859375 411.875 C-19.6959375 411.875 -8.8059375 411.875 2.4140625 411.875 C2.4140625 395.375 2.4140625 378.875 2.4140625 361.875 C-8.4759375 361.875 -19.3659375 361.875 -30.5859375 361.875 Z " fill="#000000" transform="translate(270.5859375,44.125)"/>
</svg>
